<svg width="112" height="22" viewBox="0 0 112 22" fill="none" xmlns="http://www.w3.org/2000/svg">
<path d="M11.7355 -0.000122547H15.4795V16.7759H11.7355L3.74355 6.26388V16.7759H-0.000453055V-0.000122547H3.50355L11.7355 10.7999V-0.000122547ZM30.3247 16.7759H26.9407V15.2159C26.0127 16.3839 24.8607 16.9679 23.4847 16.9679C22.1247 16.9679 20.9807 16.5759 20.0527 15.7919C19.1247 14.9919 18.6607 13.9359 18.6607 12.6239C18.6607 11.2959 19.1407 10.3039 20.1007 9.64788C21.0607 8.99188 22.3727 8.66388 24.0367 8.66388H26.7247V8.59188C26.7247 7.21588 25.9967 6.52788 24.5407 6.52788C23.9167 6.52788 23.2527 6.65588 22.5487 6.91188C21.8607 7.15188 21.2767 7.45588 20.7967 7.82388L19.1887 5.49588C20.8847 4.26388 22.8207 3.64788 24.9967 3.64788C26.5647 3.64788 27.8447 4.03988 28.8367 4.82388C29.8287 5.60788 30.3247 6.84788 30.3247 8.54388V16.7759ZM26.7007 11.8559V11.2319H24.4447C23.0047 11.2319 22.2847 11.6799 22.2847 12.5759C22.2847 13.0399 22.4527 13.3999 22.7887 13.6559C23.1407 13.8959 23.6367 14.0159 24.2767 14.0159C24.9167 14.0159 25.4767 13.8239 25.9567 13.4399C26.4527 13.0399 26.7007 12.5119 26.7007 11.8559ZM43.4267 12.7679C43.4267 14.0319 42.9547 15.0479 42.0107 15.8159C41.0827 16.5839 39.8987 16.9679 38.4587 16.9679C37.4987 16.9679 36.4987 16.7999 35.4587 16.4639C34.4187 16.1119 33.4827 15.5999 32.6507 14.9279L34.2347 12.6719C35.5787 13.7119 37.0107 14.2319 38.5307 14.2319C38.9947 14.2319 39.3627 14.1439 39.6347 13.9679C39.9067 13.7759 40.0427 13.5279 40.0427 13.2239C40.0427 12.9199 39.8507 12.6399 39.4667 12.3839C39.0987 12.1279 38.5547 11.8879 37.8347 11.6639C37.1307 11.4399 36.5867 11.2479 36.2027 11.0879C35.8347 10.9279 35.4107 10.6959 34.9307 10.3919C33.9547 9.78388 33.4667 8.88788 33.4667 7.70388C33.4667 6.50388 33.9467 5.52788 34.9067 4.77588C35.8667 4.02388 37.1067 3.64788 38.6267 3.64788C40.1467 3.64788 41.6667 4.15988 43.1867 5.18388L41.8427 7.58388C40.7227 6.81588 39.6027 6.43188 38.4827 6.43188C37.3787 6.43188 36.8267 6.73588 36.8267 7.34388C36.8267 7.67988 37.0027 7.94388 37.3547 8.13588C37.7067 8.32788 38.2907 8.55188 39.1067 8.80788C39.9227 9.06388 40.4987 9.26388 40.8347 9.40788C41.1867 9.53588 41.6027 9.74388 42.0827 10.0319C42.9787 10.5759 43.4267 11.4879 43.4267 12.7679ZM55.9955 12.7679C55.9955 14.0319 55.5235 15.0479 54.5795 15.8159C53.6515 16.5839 52.4675 16.9679 51.0275 16.9679C50.0675 16.9679 49.0675 16.7999 48.0275 16.4639C46.9875 16.1119 46.0515 15.5999 45.2195 14.9279L46.8035 12.6719C48.1475 13.7119 49.5795 14.2319 51.0995 14.2319C51.5635 14.2319 51.9315 14.1439 52.2035 13.9679C52.4755 13.7759 52.6115 13.5279 52.6115 13.2239C52.6115 12.9199 52.4195 12.6399 52.0355 12.3839C51.6675 12.1279 51.1235 11.8879 50.4035 11.6639C49.6995 11.4399 49.1555 11.2479 48.7715 11.0879C48.4035 10.9279 47.9795 10.6959 47.4995 10.3919C46.5235 9.78388 46.0355 8.88788 46.0355 7.70388C46.0355 6.50388 46.5155 5.52788 47.4755 4.77588C48.4355 4.02388 49.6755 3.64788 51.1955 3.64788C52.7155 3.64788 54.2355 4.15988 55.7555 5.18388L54.4115 7.58388C53.2915 6.81588 52.1715 6.43188 51.0515 6.43188C49.9475 6.43188 49.3955 6.73588 49.3955 7.34388C49.3955 7.67988 49.5715 7.94388 49.9235 8.13588C50.2755 8.32788 50.8595 8.55188 51.6755 8.80788C52.4915 9.06388 53.0675 9.26388 53.4035 9.40788C53.7555 9.53588 54.1715 9.74388 54.6515 10.0319C55.5475 10.5759 55.9955 11.4879 55.9955 12.7679ZM65.0362 13.7759C66.2362 13.7759 67.3162 13.1759 68.2762 11.9759L70.4122 14.3759C68.7482 16.1039 66.9482 16.9679 65.0122 16.9679C63.0762 16.9679 61.4362 16.3599 60.0922 15.1439C58.7642 13.9119 58.1002 12.3119 58.1002 10.3439C58.1002 8.35988 58.7722 6.75188 60.1162 5.51988C61.4762 4.27188 63.0842 3.64788 64.9402 3.64788C65.8682 3.64788 66.8042 3.83988 67.7482 4.22388C68.7082 4.60788 69.5482 5.17588 70.2682 5.92788L68.3962 8.37588C67.9802 7.87988 67.4682 7.49588 66.8602 7.22388C66.2682 6.95188 65.6762 6.81588 65.0842 6.81588C64.1402 6.81588 63.3242 7.12788 62.6362 7.75188C61.9642 8.35988 61.6282 9.21588 61.6282 10.3199C61.6282 11.4079 61.9642 12.2559 62.6362 12.8639C63.3242 13.4719 64.1242 13.7759 65.0362 13.7759ZM75.582 10.3199C75.582 11.3759 75.878 12.2399 76.47 12.9119C77.078 13.5679 77.846 13.8959 78.774 13.8959C79.718 13.8959 80.486 13.5679 81.078 12.9119C81.686 12.2399 81.99 11.3759 81.99 10.3199C81.99 9.26388 81.686 8.39988 81.078 7.72788C80.486 7.05588 79.718 6.71988 78.774 6.71988C77.846 6.71988 77.078 7.05588 76.47 7.72788C75.878 8.39988 75.582 9.26388 75.582 10.3199ZM85.614 10.3199C85.614 12.1919 84.966 13.7679 83.67 15.0479C82.374 16.3279 80.742 16.9679 78.774 16.9679C76.822 16.9679 75.198 16.3279 73.902 15.0479C72.606 13.7679 71.958 12.1919 71.958 10.3199C71.958 8.44788 72.606 6.87188 73.902 5.59188C75.198 4.29588 76.822 3.64788 78.774 3.64788C80.742 3.64788 82.374 4.29588 83.67 5.59188C84.966 6.87188 85.614 8.44788 85.614 10.3199ZM95.18 7.03188C94.108 7.03188 93.308 7.41588 92.78 8.18388C92.252 8.93588 91.988 9.93588 91.988 11.1839V16.7759H88.388V3.86388H91.988V5.56788C92.452 5.03988 93.028 4.59188 93.716 4.22388C94.42 3.85588 95.132 3.66388 95.852 3.64788L95.876 7.03188H95.18ZM105.867 3.64788C107.371 3.64788 108.707 4.27988 109.875 5.54388C111.059 6.79188 111.651 8.36788 111.651 10.2719C111.651 12.1759 111.059 13.7679 109.875 15.0479C108.707 16.3279 107.331 16.9679 105.747 16.9679C104.179 16.9679 102.915 16.3359 101.955 15.0719V21.4319H98.3552V3.86388H101.955V5.30388C103.059 4.19988 104.363 3.64788 105.867 3.64788ZM101.907 10.3439C101.907 11.3839 102.195 12.2399 102.771 12.9119C103.363 13.5679 104.075 13.8959 104.907 13.8959C105.739 13.8959 106.467 13.5679 107.091 12.9119C107.715 12.2399 108.027 11.3839 108.027 10.3439C108.027 9.30388 107.723 8.43188 107.115 7.72788C106.507 7.02388 105.779 6.67188 104.931 6.67188C104.083 6.67188 103.363 7.02388 102.771 7.72788C102.195 8.41588 101.907 9.28788 101.907 10.3439Z" fill="#252B42"/>
</svg>
